{
  "accessors": [
    {
      "bufferView": 2,
      "componentType": 5126,
      "count": 19240,
      "max": [
        3.223226308822632,
        3.900002956390381,
        0.31999969482421875
      ],
      "min": [
        -3.223226308822632,
        -8.38000202178955,
        -8.832195281982422
      ],
      "type": "VEC3"
    },
    {
      "bufferView": 2,
      "byteOffset": 230880,
      "componentType": 5126,
      "count": 19240,
      "max": [
        1.0,
        1.0,
        1.0
      ],
      "min": [
        -1.0,
        -1.0,
        -1.0
      ],
      "type": "VEC3"
    },
    {
      "bufferView": 1,
      "componentType": 5126,
      "count": 19240,
      "max": [
        0.9886707663536072,
        0.997250497341156
      ],
      "min": [
        0.0027495166286826134,
        0.0027495166286826134
      ],
      "type": "VEC2"
    },
    {
      "bufferView": 0,
      "componentType": 5125,
      "count": 53013,
      "type": "SCALAR"
    },
    {
      "bufferView": 2,
      "byteOffset": 461760,
      "componentType": 5126,
      "count": 19748,
      "max": [
        6.1115851402282715,
        10.598685264587402,
        -1.649998664855957
      ],
      "min": [
        -6.073605060577393,
        -10.09579849243164,
        -9.625381469726563
      ],
      "type": "VEC3"
    },
    {
      "bufferView": 2,
      "byteOffset": 698736,
      "componentType": 5126,
      "count": 19748,
      "max": [
        1.0,
        1.0,
        1.0
      ],
      "min": [
        -1.0,
        -1.0,
        -1.0
      ],
      "type": "VEC3"
    },
    {
      "bufferView": 1,
      "byteOffset": 153920,
      "componentType": 5126,
      "count": 19748,
      "max": [
        0.9957860112190247,
        0.9964808821678162
      ],
      "min": [
        0.003519132500514388,
        0.003519132500514388
      ],
      "type": "VEC2"
    },
    {
      "bufferView": 0,
      "byteOffset": 212052,
      "componentType": 5125,
      "count": 67548,
      "type": "SCALAR"
    },
    {
      "bufferView": 2,
      "byteOffset": 935712,
      "componentType": 5126,
      "count": 130,
      "max": [
        2.2856192588806152,
        0.4908456802368164,
        -3.168962001800537
      ],
      "min": [
        -2.2856192588806152,
        -6.158299446105957,
        -6.18098258972168
      ],
      "type": "VEC3"
    },
    {
      "bufferView": 2,
      "byteOffset": 937272,
      "componentType": 5126,
      "count": 130,
      "max": [
        1.0,
        0.007507693022489548,
        0.005340838339179754
      ],
      "min": [
        -1.0,
        0.0,
        -0.0
      ],
      "type": "VEC3"
    },
    {
      "bufferView": 1,
      "byteOffset": 311904,
      "componentType": 5126,
      "count": 130,
      "max": [
        0.9049380421638489,
        0.8932724595069885
      ],
      "min": [
        0.5646772980690002,
        0.3954636752605438
      ],
      "type": "VEC2"
    },
    {
      "bufferView": 0,
      "byteOffset": 482244,
      "componentType": 5125,
      "count": 384,
      "type": "SCALAR"
    }
  ],
  "asset": {
    "extras": {
      "author": "Ben_L (https://sketchfab.com/Ben_L)",
      "license": "CC-BY-4.0 (http://creativecommons.org/licenses/by/4.0/)",
      "source": "https://sketchfab.com/3d-models/mozarts-worst-nightmare-ec937670c162493c92a7d13d76ad550f",
      "title": "Mozart's Worst Nightmare"
    },
    "generator": "Sketchfab-12.68.0",
    "version": "2.0"
  },
  "bufferViews": [
    {
      "buffer": 0,
      "byteLength": 483780,
      "name": "floatBufferViews",
      "target": 34963
    },
    {
      "buffer": 0,
      "byteLength": 312944,
      "byteOffset": 483780,
      "byteStride": 8,
      "name": "floatBufferViews",
      "target": 34962
    },
    {
      "buffer": 0,
      "byteLength": 938832,
      "byteOffset": 796724,
      "byteStride": 12,
      "name": "floatBufferViews",
      "target": 34962
    }
  ],
  "buffers": [
    {
      "byteLength": 1735556,
      "uri": "scene.bin"
    }
  ],
  "images": [
    {
      "uri": "textures/Mechanical_baseColor.png"
    },
    {
      "uri": "textures/Brass_baseColor.png"
    }
  ],
  "materials": [
    {
      "doubleSided": true,
      "name": "Mechanical",
      "pbrMetallicRoughness": {
        "baseColorTexture": {
          "index": 0
        },
        "metallicFactor": 0.8,
        "roughnessFactor": 0.2
      }
    },
    {
      "doubleSided": true,
      "name": "Brass",
      "pbrMetallicRoughness": {
        "baseColorTexture": {
          "index": 1
        },
        "roughnessFactor": 0.050151524399266095
      }
    },
    {
      "doubleSided": true,
      "emissiveFactor": [
        1.0,
        1.0,
        1.0
      ],
      "name": "Emmission",
      "pbrMetallicRoughness": {
        "metallicFactor": 0.0
      }
    }
  ],
  "meshes": [
    {
      "name": "Object_0",
      "primitives": [
        {
          "attributes": {
            "NORMAL": 1,
            "POSITION": 0,
            "TEXCOORD_0": 2
          },
          "indices": 3,
          "material": 0,
          "mode": 4
        }
      ]
    },
    {
      "name": "Object_1",
      "primitives": [
        {
          "attributes": {
            "NORMAL": 5,
            "POSITION": 4,
            "TEXCOORD_0": 6
          },
          "indices": 7,
          "material": 1,
          "mode": 4
        }
      ]
    },
    {
      "name": "Object_2",
      "primitives": [
        {
          "attributes": {
            "NORMAL": 9,
            "POSITION": 8,
            "TEXCOORD_0": 10
          },
          "indices": 11,
          "material": 2,
          "mode": 4
        }
      ]
    }
  ],
  "nodes": [
    {
      "children": [
        1
      ],
      "matrix": [
        1.0,
        0.0,
        0.0,
        0.0,
        0.0,
        2.220446049250313e-16,
        -1.0,
        0.0,
        0.0,
        1.0,
        2.220446049250313e-16,
        0.0,
        0.0,
        0.0,
        0.0,
        1.0
      ],
      "name": "Sketchfab_model"
    },
    {
      "children": [
        2
      ],
      "name": "root"
    },
    {
      "children": [
        3
      ],
      "matrix": [
        1.0,
        0.0,
        0.0,
        0.0,
        0.0,
        2.220446049250313e-16,
        1.0,
        0.0,
        0.0,
        -1.0,
        2.220446049250313e-16,
        0.0,
        0.0,
        0.0,
        0.0,
        1.0
      ],
      "name": "GLTF_SceneRootNode"
    },
    {
      "children": [
        4,
        5,
        6
      ],
      "matrix": [
        1.0,
        0.0,
        0.0,
        0.0,
        0.0,
        -1.685873969314855e-07,
        0.9999999999999858,
        0.0,
        0.0,
        -0.9999999999999858,
        -1.685873969314855e-07,
        0.0,
        0.0,
        0.0,
        0.0,
        1.0
      ],
      "name": "Trumpetgun_0"
    },
    {
      "mesh": 0,
      "name": "Object_4"
    },
    {
      "mesh": 1,
      "name": "Object_5"
    },
    {
      "mesh": 2,
      "name": "Object_6"
    }
  ],
  "samplers": [
    {
      "magFilter": 9729,
      "minFilter": 9987,
      "wrapS": 10497,
      "wrapT": 10497
    }
  ],
  "scene": 0,
  "scenes": [
    {
      "name": "Sketchfab_Scene",
      "nodes": [
        0
      ]
    }
  ],
  "textures": [
    {
      "sampler": 0,
      "source": 0
    },
    {
      "sampler": 0,
      "source": 1
    }
  ]
}
